<?xml version="1.0" encoding="UTF-8"?>
<svg width="100px" height="90px" viewBox="0 0 100 90" version="1.1" xmlns="http://www.w3.org/2000/svg" xmlns:xlink="http://www.w3.org/1999/xlink">
    <!-- Generator: Sketch 61.2 (89653) - https://sketch.com -->
    <title>Group</title>
    <desc>Created with Sketch.</desc>
    <g id="new" stroke="none" stroke-width="1" fill="none" fill-rule="evenodd">
        <g id="Group">
            <path d="M30,30 C30,32.2068966 27.9859834,34 25.5007959,34 C23.0160064,34 21,32.2068966 21,30 C21,27.7895668 23.0160064,26 25.5007959,26 C27.9859834,26 30,27.7895668 30,30" id="Fill-54" fill="#FF8C00"></path>
            <path d="M42,16.5015442 C42,17.8820259 40.4340171,19 38.5008649,19 C36.5677128,19 35,17.8820259 35,16.5015442 C35,15.1210624 36.5677128,14 38.5008649,14 C40.4340171,14 42,15.1210624 42,16.5015442" id="Fill-55" fill="#FF8C00"></path>
            <path d="M33,6.49845584 C33,7.87893762 31.4321903,9 29.4989188,9 C27.5656472,9 26,7.87893762 26,6.49845584 C26,5.11797406 27.5656472,4 29.4989188,4 C31.4321903,4 33,5.11797406 33,6.49845584" id="Fill-56" fill="#FF8C00"></path>
            <path d="M14,35.5015442 C14,36.8820259 12.4321903,38 10.4989188,38 C8.5678097,38 7,36.8820259 7,35.5015442 C7,34.1210624 8.5678097,33 10.4989188,33 C12.4321903,33 14,34.1210624 14,35.5015442" id="Fill-57" fill="#FF8C00"></path>
            <path d="M17,52.4977896 C17,53.8815208 15.8807818,55 14.5002211,55 C13.1192182,55 12,53.8815208 12,52.4977896 C12,51.1184792 13.1192182,50 14.5002211,50 C15.8807818,50 17,51.1184792 17,52.4977896" id="Fill-58" fill="#FF8C00"></path>
            <path d="M17,2.49778957 C17,3.88152078 15.8806828,5 14.5,5 C13.1193172,5 12,3.88152078 12,2.49778957 C12,1.11847922 13.1193172,0 14.5,0 C15.8806828,0 17,1.11847922 17,2.49778957" id="Fill-59" fill="#FF8C00"></path>
            <path d="M5,13.4977896 C5,14.8815208 3.88255063,16 2.5002211,16 C1.11921818,16 0,14.8815208 0,13.4977896 C0,12.1184792 1.11921818,11 2.5002211,11 C3.88255063,11 5,12.1184792 5,13.4977896" id="Fill-60" fill="#FF8C00"></path>
            <path d="M11,21.4977896 C11,22.8815208 9.88289404,24 8.5,24 C7.11931718,24 6,22.8815208 6,21.4977896 C6,20.1184792 7.11931718,19 8.5,19 C9.88289404,19 11,20.1184792 11,21.4977896" id="Fill-61" fill="#FF8C00"></path>
            <path d="M46,2.49778957 C46,3.88152078 44.8805838,5 43.4997789,5 C42.1189739,5 41,3.88152078 41,2.49778957 C41,1.11847922 42.1189739,0 43.4997789,0 C44.8805838,0 46,1.11847922 46,2.49778957" id="Fill-62" fill="#FF8C00"></path>
            <path d="M24,16.5 C24,17.880531 22.8823998,19 21.5011061,19 C20.11937,19 19,17.880531 19,16.5 C19,15.1150442 20.11937,14 21.5011061,14 C22.8823998,14 24,15.1150442 24,16.5" id="Fill-63" fill="#FF8C00"></path>
            <path d="M62,50 C62,52.2068966 59.9856271,54 57.5,54 C55.0147709,54 53,52.2068966 53,50 C53,47.7895668 55.0147709,46 57.5,46 C59.9856271,46 62,47.7895668 62,50" id="Fill-64" fill="#0E90FF"></path>
            <path d="M47,29.5 C47,30.881335 45.430945,32 43.5004324,32 C41.5673255,32 40,30.881335 40,29.5 C40,28.118665 41.5673255,27 43.5004324,27 C45.430945,27 47,28.118665 47,29.5" id="Fill-65" fill="#0E90FF"></path>
            <path d="M32,44.5 C32,45.8825088 30.8789139,47 29.5,47 C28.1188749,47 27,45.8825088 27,44.5 C27,43.1219081 28.1188749,42 29.5,42 C30.8789139,42 32,43.1219081 32,44.5" id="Fill-66" fill="#0E90FF"></path>
            <path d="M68,30.4981413 C68,31.8810409 66.6581413,33 65.0013383,33 C63.3449814,33 62,31.8810409 62,30.4981413 C62,29.1189591 63.3449814,28 65.0013383,28 C66.6581413,28 68,29.1189591 68,30.4981413" id="Fill-67" fill="#0E90FF"></path>
            <path d="M71,71.5018587 C71,72.8810409 69.6587868,74 67.9982159,74 C66.3438894,74 65,72.8810409 65,71.5018587 C65,70.1189591 66.3438894,69 67.9982159,69 C69.6587868,69 71,70.1189591 71,71.5018587" id="Fill-68" fill="#0E90FF"></path>
            <path d="M81,52 C81,53.6591981 79.4327065,55 77.5010317,55 C75.5672935,55 74,53.6591981 74,52 C74,50.3443396 75.5672935,49 77.5010317,49 C79.4327065,49 81,50.3443396 81,52" id="Fill-69" fill="#0E90FF"></path>
            <path d="M61,12.9982309 C61,15.2096418 58.984035,17 56.5,17 C54.0147709,17 52,15.2096418 52,12.9982309 C52,10.7903582 54.0147709,9 56.5,9 C58.984035,9 61,10.7903582 61,12.9982309" id="Fill-70" fill="#0E90FF"></path>
            <path d="M93,31 C93,33.2104332 90.985538,35 88.499801,35 C86.014462,35 84,33.2104332 84,31 C84,28.7931034 86.014462,27 88.499801,27 C90.985538,27 93,28.7931034 93,31" id="Fill-71" fill="#0E90FF"></path>
            <path d="M93,68 C93,70.2068966 90.985538,72 88.499801,72 C86.014462,72 84,70.2068966 84,68 C84,65.7895668 86.014462,64 88.499801,64 C90.985538,64 93,65.7895668 93,68" id="Fill-72" fill="#0E90FF"></path>
            <path d="M61,86 C61,88.2068966 58.984035,90 56.5,90 C54.0147709,90 52,88.2068966 52,86 C52,83.7931034 54.0147709,82 56.5,82 C58.984035,82 61,83.7931034 61,86" id="Fill-73" fill="#0E90FF"></path>
            <path d="M31,68 C31,70.2068966 28.9839936,72 26.4988062,72 C24.0156084,72 22,70.2068966 22,68 C22,65.7895668 24.0156084,64 26.4988062,64 C28.9839936,64 31,65.7895668 31,68" id="Fill-74" fill="#0E90FF"></path>
            <polygon id="Fill-75" fill="#0E90FF" points="56 86 58 86 58 14 56 14"></polygon>
            <polyline id="Fill-76" fill="#0E90FF" points="59.7881309 84 59 82.6857763 87.2118691 67 88 68.3142237 59.7881309 84"></polyline>
            <polygon id="Fill-77" fill="#0E90FF" points="87 65 89 65 89 33 87 33"></polygon>
            <polyline id="Fill-78" fill="#0E90FF" points="85.2233051 30 58 14.282539 58.7763236 13 86 28.7138277 85.2233051 30"></polyline>
            <polyline id="Fill-79" fill="#0E90FF" points="53.1914671 84 26 67.3043478 26.8115344 66 54 82.6956522 53.1914671 84"></polyline>
            <polyline id="Fill-80" fill="#0E90FF" points="26.788592 67 26 65.6419413 86.21485 31 87 32.3580587 26.788592 67"></polyline>
            <polyline id="Fill-81" fill="#0E90FF" points="77.3007401 51 58 16.3846999 58.6992599 16 78 50.6191471 77.3007401 51"></polyline>
            <polyline id="Fill-82" fill="#0E90FF" points="69.7574158 72 28 68.9506972 28.0564805 68.1543825 69.2674092 71.1609562 86.2840714 33 87 33.3301793 69.7574158 72"></polyline>
            <polyline id="Fill-83" fill="#0E90FF" points="56.2574189 83 44 30.1834307 44.7429527 30 57 82.8165693 56.2574189 83"></polyline>
            <polyline id="Fill-84" fill="#0E90FF" points="27.7033998 65 27 64.6721763 42.2962251 30 43 30.3278237 27.7033998 65"></polyline>
            <polyline id="Fill-85" fill="#0E90FF" points="64.9179347 31 44 28.827027 44.0804795 28 65 30.1689189 64.9179347 31"></polyline>
            <polyline id="Fill-86" fill="#0E90FF" points="28.2092608 67 28 66.2138698 75.7903635 52 76 52.7861302 28.2092608 67"></polyline>
            <polyline id="Fill-87" fill="#0E90FF" points="74.8678373 52 31 44.7246637 31.1336688 44 75 51.2753363 74.8678373 52"></polyline>
            <!-- <path d="M134.618113,58.9731989 C134.618113,59.394148 134.483518,59.6695353 134.213414,59.7993607 C133.943766,59.9331202 133.539067,60 133.001141,60 C132.459108,60 132.058515,59.9331202 131.798449,59.7993607 C131.534276,59.6695353 131.404699,59.394148 131.404699,58.9731989 L131.404699,48.6697812 C131.404699,48.2488321 131.534276,47.9734448 131.798449,47.8436194 C132.058515,47.7098598 132.459108,47.6429801 133.001141,47.6429801 C133.539067,47.6429801 133.943766,47.7098598 134.213414,47.8436194 C134.483518,47.9734448 134.618113,48.2488321 134.618113,48.6697812 L134.618113,58.9731989 Z M131,45.3533317 C131,44.8891075 131.154671,44.5468404 131.468575,44.3265306 C131.77883,44.1101549 132.289837,44 133.001141,44 C133.706513,44 134.21752,44.1101549 134.531425,44.3265306 C134.842135,44.5468404 135,44.8891075 135,45.3533317 C135,45.8175559 134.842135,46.159823 134.531425,46.3801328 C134.21752,46.5965085 133.706513,46.7066634 133.001141,46.7066634 C132.289837,46.7066634 131.77883,46.5965085 131.468575,46.3801328 C131.154671,46.159823 131,45.8175559 131,45.3533317 L131,45.3533317 Z" id="Fill-88" fill="#0E90FF"></path>
            <path d="M151.284671,56.2989614 L151.284671,50.5793769 C151.284671,50.1676558 151.014102,49.8152819 150.472193,49.518546 C149.929898,49.2255193 149.05999,49.0771513 147.863242,49.0771513 L143.137529,49.0771513 C141.939239,49.0771513 141.071259,49.2255193 140.528964,49.518546 C139.986669,49.8152819 139.718027,50.1676558 139.718027,50.5793769 L139.718027,54.7967359 C139.718027,55.2232938 139.986669,55.5793769 140.528964,55.8686944 C141.071259,56.1580119 141.939239,56.2989614 143.137529,56.2989614 L151.284671,56.2989614 Z M145.511756,62 C145.182987,62 144.971388,61.9109792 144.8785,61.7329377 C144.787154,61.5548961 144.739747,61.291543 144.739747,60.9502967 C144.739747,60.6053412 144.787154,60.3494065 144.8785,60.1787834 C144.971388,60.004451 145.182987,59.9228487 145.511756,59.9228487 L148.46258,59.9228487 C149.517492,59.9228487 150.250572,59.7967359 150.664135,59.5408012 C151.076156,59.2885757 151.284671,58.921365 151.284671,58.4391691 L151.284671,58.3353116 L143.051579,58.3353116 C139.017707,58.3353116 137,57.1446588 137,54.7559347 L137,50.5793769 C137,48.1906528 139.017707,47 143.051579,47 L147.949577,47 C151.983064,47 154,48.1906528 154,50.5793769 L154,58.4391691 C154,59.6335312 153.525926,60.5274481 152.577391,61.1135015 C151.628086,61.7069733 150.257125,62 148.46258,62 L145.511756,62 L145.511756,62 Z" id="Fill-89" fill="#0E90FF"></path>
            <path d="M160.620091,58.9731989 C160.620091,59.394148 160.485388,59.6695353 160.213242,59.7993607 C159.942922,59.9331202 159.540183,60 158.999543,60 C158.458904,60 158.057991,59.9331202 157.794977,59.7993607 C157.532877,59.6695353 157.40137,59.394148 157.40137,58.9731989 L157.40137,48.6697812 C157.40137,48.2488321 157.532877,47.9734448 157.794977,47.8436194 C158.057991,47.7098598 158.458904,47.6429801 158.999543,47.6429801 C159.540183,47.6429801 159.942922,47.7098598 160.213242,47.8436194 C160.485388,47.9734448 160.620091,48.2488321 160.620091,48.6697812 L160.620091,58.9731989 Z M157,45.3533317 C157,44.8891075 157.154338,44.5468404 157.46758,44.3265306 C157.779909,44.1101549 158.288584,44 158.999543,44 C159.709589,44 160.218721,44.1101549 160.52968,44.3265306 C160.843836,44.5468404 161,44.8891075 161,45.3533317 C161,45.8175559 160.843836,46.159823 160.52968,46.3801328 C160.218721,46.5965085 159.709589,46.7066634 158.999543,46.7066634 C158.288584,46.7066634 157.779909,46.5965085 157.46758,46.3801328 C157.154338,46.159823 157,45.8175559 157,45.3533317 L157,45.3533317 Z" id="Fill-90" fill="#0E90FF"></path>
            <path d="M163.79222,47.5800344 L163.79222,45.0268011 C163.79222,44.6019179 163.893293,44.3265306 164.091618,44.1967052 C164.289596,44.0668798 164.594898,44 165.007178,44 C165.417722,44 165.726497,44.0668798 165.933158,44.1967052 C166.136693,44.3265306 166.23985,44.6019179 166.23985,45.0268011 L166.23985,47.5800344 L170.306036,47.5800344 C170.601266,47.5800344 170.79056,47.6744529 170.873919,47.8632899 C170.957278,48.0521269 171,48.3275141 171,48.6933858 C171,49.0553233 170.957278,49.3307106 170.873919,49.5077453 C170.79056,49.6926481 170.601266,49.7831325 170.306036,49.7831325 L166.23985,49.7831325 L166.23985,58.9731989 C166.23985,59.394148 166.136693,59.6695353 165.933158,59.7993607 C165.726497,59.9331202 165.417722,60 165.007178,60 C164.594898,60 164.289596,59.9331202 164.091618,59.7993607 C163.893293,59.6695353 163.79222,59.394148 163.79222,58.9731989 L163.79222,49.7831325 L162.696048,49.7831325 C162.399429,49.7831325 162.208398,49.6926481 162.126081,49.5077453 C162.042722,49.3307106 162,49.0553233 162,48.6933858 C162,48.3275141 162.042722,48.0521269 162.126081,47.8632899 C162.208398,47.6744529 162.399429,47.5800344 162.696048,47.5800344 L163.79222,47.5800344" id="Fill-91" fill="#0E90FF"></path>
            <path d="M180.834147,56.8557754 C182.039516,56.8557754 182.911502,56.7026165 183.456687,56.4001276 C183.999935,56.0938098 184.272915,55.7300574 184.272915,55.3050415 L184.272915,52.5443523 L175.165853,52.5443523 C173.962032,52.5443523 173.090047,52.6898532 172.544862,52.9885131 C172.000065,53.2871729 171.727085,53.6547543 171.727085,54.0912572 L171.727085,55.3050415 C171.727085,55.7300574 172.000065,56.0938098 172.544862,56.4001276 C173.090047,56.7026165 173.962032,56.8557754 175.165853,56.8557754 L180.834147,56.8557754 Z M175.078732,59 C171.027018,59 169,57.7670708 169,55.3050415 L169,54.1793235 C169,51.7134652 171.027018,50.484365 175.078732,50.484365 L184.272915,50.484365 L184.272915,50.4613912 C184.272915,50.0516911 184.004195,49.7300574 183.468303,49.4926611 C182.93125,49.2629228 182.053069,49.1442246 180.834147,49.1442246 L178.817196,49.1442246 C178.484974,49.1442246 178.273948,49.0561583 178.172887,48.8761966 C178.072988,48.7038928 178.023813,48.4358647 178.023813,48.0835992 C178.023813,47.7160179 178.072988,47.4403318 178.172887,47.2641991 C178.273948,47.0880664 178.484974,47 178.817196,47 L180.920881,47 C184.974531,47 187,48.2291002 187,50.6949585 L187,55.3050415 C187,57.7670708 184.974531,59 180.920881,59 L175.078732,59 L175.078732,59 Z" id="Fill-92" fill="#0E90FF"></path>
            <path d="M192,58.9731989 C192,59.394148 191.87264,59.6695353 191.620474,59.7993607 C191.370013,59.9331202 190.992617,60 190.486582,60 C189.982678,60 189.60656,59.9331202 189.363765,59.7993607 C189.118841,59.6695353 189,59.394148 189,58.9731989 L189,45.0268011 C189,44.6019179 189.118841,44.3265306 189.363765,44.1967052 C189.60656,44.0668798 189.982678,44 190.486582,44 C190.992617,44 191.370013,44.0668798 191.620474,44.1967052 C191.87264,44.3265306 192,44.6019179 192,45.0268011 L192,58.9731989" id="Fill-93" fill="#0E90FF"></path>
            <path d="M231.245747,50.6949585 C231.245747,50.2584556 230.971768,49.8870453 230.422246,49.5883854 C229.873115,49.2935546 228.990206,49.1442246 227.776255,49.1442246 L223.223745,49.1442246 C222.008231,49.1442246 221.125322,49.2935546 220.576973,49.5883854 C220.026669,49.8870453 219.75269,50.2584556 219.75269,50.6949585 L219.75269,55.3050415 C219.75269,55.7300574 220.026669,56.0938098 220.576973,56.4001276 C221.125322,56.7026165 222.008231,56.8557754 223.223745,56.8557754 L227.776255,56.8557754 C228.990206,56.8557754 229.873115,56.7026165 230.422246,56.4001276 C230.971768,56.0938098 231.245747,55.7300574 231.245747,55.3050415 L231.245747,50.6949585 Z M217,50.6949585 C217,48.2291002 219.045659,47 223.136587,47 L227.862631,47 C231.954341,47 234,48.2291002 234,50.6949585 L234,55.3050415 C234,57.7670708 231.954341,59 227.862631,59 L223.136587,59 C219.045659,59 217,57.7670708 217,55.3050415 L217,50.6949585 L217,50.6949585 Z" id="Fill-94" fill="#0E90FF"></path>
            <path d="M236.792497,47.5800344 L236.792497,45.0268011 C236.792497,44.6019179 236.892195,44.3265306 237.090204,44.1967052 C237.289949,44.0668798 237.596341,44 238.006253,44 C238.41686,44 238.725336,44.0668798 238.932376,44.1967052 C239.135943,44.3265306 239.240505,44.6019179 239.240505,45.0268011 L239.240505,47.5800344 L243.305929,47.5800344 C243.602594,47.5800344 243.79157,47.6744529 243.876679,47.8632899 C243.957272,48.0521269 244,48.3275141 244,48.6933858 C244,49.0553233 243.957272,49.3307106 243.876679,49.5077453 C243.79157,49.6926481 243.602594,49.7831325 243.305929,49.7831325 L239.240505,49.7831325 L239.240505,58.9731989 C239.240505,59.394148 239.135943,59.6695353 238.932376,59.7993607 C238.725336,59.9331202 238.41686,60 238.006253,60 C237.596341,60 237.289949,59.9331202 237.090204,59.7993607 C236.892195,59.6695353 236.792497,59.394148 236.792497,58.9731989 L236.792497,49.7831325 L235.694766,49.7831325 C235.398101,49.7831325 235.20704,49.6926481 235.1261,49.5077453 C235.042728,49.3307106 235,49.0553233 235,48.6933858 C235,48.3275141 235.042728,48.0521269 235.1261,47.8632899 C235.20704,47.6744529 235.398101,47.5800344 235.694766,47.5800344 L236.792497,47.5800344" id="Fill-95" fill="#0E90FF"></path>
            <path d="M247,50.1857052 C247,49.1940013 247.413195,48.4167198 248.238471,47.8462029 C249.06263,47.283344 250.28734,47 251.911857,47 L254.737281,47 C255.052663,47 255.260562,47.0880664 255.356144,47.2641991 C255.452098,47.4403318 255.500818,47.7160179 255.500818,48.0835992 C255.500818,48.4358647 255.452098,48.7038928 255.356144,48.8761966 C255.260562,49.0561583 255.052663,49.1442246 254.737281,49.1442246 L251.889914,49.1442246 C251.104061,49.1442246 250.529456,49.2399489 250.156799,49.4313976 C249.784142,49.6228462 249.600417,49.8793874 249.600417,50.20485 L249.600417,50.7600511 C249.600417,51.0855137 249.791952,51.3458839 250.177254,51.5449904 C250.562184,51.744097 251.168774,51.8398213 251.99219,51.8398213 L256.553332,51.8398213 C258.478355,51.8398213 259.867078,52.1269943 260.720619,52.6898532 C261.574159,53.2565412 262,54.0491385 262,55.0714742 L262,55.7492023 C262,56.2584556 261.889542,56.7179324 261.669369,57.1199745 C261.44994,57.5258456 261.105549,57.8627951 260.638426,58.1423101 C260.169444,58.4179962 259.564341,58.6285897 258.822746,58.7779196 C258.079664,58.9272495 257.193395,59 256.16022,59 L247.80482,59 C247.488694,59 247.280794,58.9119336 247.185213,58.7358009 C247.087771,58.5596682 247.040539,58.2878111 247.040539,57.9164008 C247.040539,57.5641353 247.087771,57.2961072 247.185213,57.1199745 C247.280794,56.9438417 247.488694,56.8557754 247.80482,56.8557754 L256.553332,56.8557754 C257.103392,56.8557754 257.559357,56.8289726 257.924204,56.7791959 C258.287935,56.7294193 258.579143,56.6604978 258.791506,56.5686024 C259.004984,56.4767071 259.152261,56.3656669 259.235942,56.2393108 C259.318878,56.1091257 259.357929,55.9636248 259.357929,55.79515 L259.357929,55.0255265 C259.357929,54.8608807 259.318878,54.7115507 259.235942,54.5813657 C259.152261,54.4550096 259.007959,54.3401404 258.802291,54.2405871 C258.594392,54.1448628 258.317688,54.0682833 257.96623,54.0185067 C257.61626,53.9687301 257.170708,53.9457562 256.635525,53.9457562 L252.014133,53.9457562 C250.349821,53.9457562 249.096102,53.6662412 248.258554,53.1072112 C247.41989,52.5481812 247,51.7785578 247,50.7983408 L247,50.1857052" id="Fill-96" fill="#0E90FF"></path>
            <polygon id="Fill-100" fill="#FF8C00" points="198 47 204 47 204 42 198 42"></polygon>
            <path d="M208.486011,44 L206.130014,44 L206.130014,46.2339632 L208.39718,46.2339632 C209.689192,46.2339632 210.632621,46.3906017 211.225091,46.7001492 C211.818353,47.0096967 212.11657,47.3938339 212.11657,47.8488314 L212.11657,55.1511686 C212.11657,55.5949776 211.818353,55.9716559 211.225091,56.2923918 C210.632621,56.6056688 209.689192,56.7660368 208.39718,56.7660368 L197.925465,56.7660368 L197.925465,50.429637 L195,50.429637 L195,58.0266037 C195,58.6755346 195.336684,59 196.012036,59 L208.486011,59 C212.829199,59 215,57.7170562 215,55.1511686 L215,47.8488314 C215,45.2829438 212.829199,44 208.486011,44" id="Fill-101" fill="#0E90FF"></path>
            <polygon id="Fill-102" fill="#FF8C00" points="113 47 119 47 119 42 113 42"></polygon>
            <path d="M123.487505,44 L121.132884,44 L121.132884,46.2302337 L123.398651,46.2302337 C124.690599,46.2302337 125.634272,46.3868722 126.227687,46.6964197 C126.822689,47.0096967 127.119,47.3901044 127.119,47.8451019 L127.119,55.1511686 C127.119,55.5912481 126.822689,55.9716559 126.227687,56.2886624 C125.634272,56.6056688 124.690599,56.7623073 123.398651,56.7623073 L112.925823,56.7623073 L112.925823,50.4259075 L110,50.4259075 L110,58.0266037 C110,58.6755346 110.336771,59 111.010313,59 L123.487505,59 C127.831416,59 130,57.7133267 130,55.1511686 L130,47.8451019 C130,45.2829438 127.831416,44 123.487505,44" id="Fill-103" fill="#0E90FF"></path> -->
        </g>
    </g>
</svg>